<svg xmlns="http://www.w3.org/2000/svg" width="117" height="35" viewBox="0 0 117 35">
    <path fill="#68A51C" fill-rule="evenodd" d="M106.079 1.48H94.013l-6.88 19.67c.308-1.633.362-2.939.362-3.506 0-8.24-4.78-16.164-16.012-16.164H58.585l.038 19.567c-1.115-5.56-6.257-7.05-12.651-8.969-2.39-.727-3.703-1.882-3.224-2.96.41-.938 1.875-1.234 3.653-.991 2.713.384 4.88 1.28 6.966 2.4l2.85-6.976C55.575 3.238 50.957.5 45.169.5c-8.071 0-13.227 3.89-13.227 9.63 0 5.115 3.19 8.089 9.054 9.756 6.307 1.807 7.906 2.533 7.717 4.326-.164 1.544-4.073 3.425-13.638-2.388l-2.841 5.809L23.46 1.48H11.4L0 33.99h9.507l1.842-5.249h11.15l1.896 5.25h9.98l-1.132-3.18c3.375 1.926 7.559 3.689 12.563 3.689 7.67 0 11.814-4.136 12.803-8.1v7.59H71.47c7.665 0 11.676-3.61 13.772-7.474L82.61 33.99h9.5l1.902-5.25h11.325l1.67 5.25H117L106.079 1.48zM13.473 21.398l3.544-11.17 3.359 11.17h-6.903zm54.694 4.209V9.859h2.267c3.232 0 6.76 1.292 6.76 7.874 0 5.83-3.116 7.874-6.732 7.874h-2.295zm28.144-4.209l3.38-11.037 3.523 11.037H96.31z"/>
</svg>
