<svg xmlns="http://www.w3.org/2000/svg" xmlns:xlink="http://www.w3.org/1999/xlink" width="48" height="48" viewBox="0 0 48 48">
    <defs>
        <filter id="q12i3szv1b" width="116%" height="109.4%" x="-8%" y="-4.7%" filterUnits="objectBoundingBox">
            <feOffset in="SourceAlpha" result="shadowOffsetOuter1"/>
            <feGaussianBlur in="shadowOffsetOuter1" result="shadowBlurOuter1" stdDeviation="10"/>
            <feColorMatrix in="shadowBlurOuter1" values="0 0 0 0 0 0 0 0 0 0 0 0 0 0 0 0 0 0 0.1 0"/>
        </filter>
        <filter id="q586tx2n5d" width="116%" height="176.9%" x="-8%" y="-38.5%" filterUnits="objectBoundingBox">
            <feOffset in="SourceAlpha" result="shadowOffsetOuter1"/>
            <feGaussianBlur in="shadowOffsetOuter1" result="shadowBlurOuter1" stdDeviation="10"/>
            <feColorMatrix in="shadowBlurOuter1" values="0 0 0 0 0 0 0 0 0 0 0 0 0 0 0 0 0 0 0.1 0"/>
        </filter>
        <rect id="269uvwc6nc" width="375" height="639" x="0" y="111" rx="12"/>
        <rect id="xabo4m6uoa" width="48" height="48" x="0" y="0" rx="4"/>
        <path id="4976v9dmve" d="M12 0h351c6.627 0 12 5.373 12 12v66H0V12C0 5.373 5.373 0 12 0z"/>
        <mask id="uxrhil7ovf" width="48" height="48" x="0" y="0" fill="#fff" maskContentUnits="userSpaceOnUse" maskUnits="objectBoundingBox">
            <use xlink:href="#xabo4m6uoa"/>
        </mask>
    </defs>
    <g fill="none" fill-rule="evenodd" transform="translate(-279 -688)">
        <use fill="#000" filter="url(#q12i3szv1b)" xlink:href="#269uvwc6nc"/>
        <use fill="#FFF" xlink:href="#269uvwc6nc"/>
        <g transform="translate(0 672)">
            <use fill="#000" filter="url(#q586tx2n5d)" xlink:href="#4976v9dmve"/>
            <use fill="#FFF" xlink:href="#4976v9dmve"/>
            <g>
                <g transform="translate(215 16) translate(64)">
                    <use stroke="#CCC" stroke-dasharray="2" stroke-width="2" mask="url(#uxrhil7ovf)" xlink:href="#xabo4m6uoa"/>
                    <text fill="#949494" font-family="SourceSansPro-SemiBold, Source Sans Pro" font-size="10" font-weight="500" letter-spacing=".083">
                        <tspan x="7.638" y="41">+ bread</tspan>
                    </text>
                    <path fill="#949494" fill-rule="nonzero" d="M23.997 14c5.52 0 8.514 2.934 8.98 8.802l.02.282c.048.733-.511 1.366-1.248 1.413l-.086.003H16.422c-.785 0-1.422-.634-1.422-1.415v-.049l.003-.049C15.421 16.996 18.42 14 23.997 14zm.763 1.5l-.001 1.483c0 .415-.34.752-.759.752s-.758-.337-.758-.752V15.5c-.54.031-1.045.096-1.518.196v2.04c0 .415-.34.751-.758.751-.42 0-.759-.336-.759-.752V16.19c-2.046.942-3.238 2.839-3.64 5.811l-.048.41-.017.18c-.02.206.134.39.343.408l.034.002h14.242c.21 0 .379-.168.379-.376l-.002-.034-.036-.363c-.371-3.102-1.57-5.072-3.668-6.037v1.545c0 .416-.34.752-.759.752s-.759-.336-.759-.752v-2.039c-.472-.1-.978-.165-1.516-.196z"/>
                </g>
            </g>
        </g>
    </g>
</svg>
