<svg xmlns="http://www.w3.org/2000/svg" width="32" height="32" viewBox="0 0 32 32">
    <g fill="none" fill-rule="evenodd">
        <text fill="#3D3D3D" font-family="SourceSansPro-SemiBold, Source Sans Pro" font-size="16" font-weight="500" letter-spacing=".2" transform="translate(-72 -129)">
            <tspan x="0" y="144">£1.00</tspan>
        </text>
        <text fill="#767676" font-family="SourceSansPro-Regular, Source Sans Pro" font-size="10" letter-spacing=".083" transform="translate(-72 -129)">
            <tspan x="0" y="158">(25.0p/each)</tspan>
        </text>
        <g fill="#68A51C">
            <path fill-rule="nonzero" d="M16 0c8.837 0 16 7.163 16 16s-7.163 16-16 16S0 24.837 0 16 7.163 0 16 0zm0 1C7.716 1 1 7.716 1 16c0 8.284 6.716 15 15 15 8.284 0 15-6.716 15-15 0-8.284-6.716-15-15-15z" transform="translate(-72 -129) translate(72 129)"/>
            <path d="M16.5 8c.276 0 .5.224.5.5v6.499l6.5.001c.276 0 .5.224.5.5v1c0 .276-.224.5-.5.5H17v6.5c0 .276-.224.5-.5.5h-1c-.276 0-.5-.224-.5-.5V17H8.5c-.276 0-.5-.224-.5-.5v-1c0-.276.224-.5.5-.5H15V8.5c0-.276.224-.5.5-.5h1z" transform="translate(-72 -129) translate(72 129)"/>
        </g>
    </g>
</svg>
