<?xml version="1.0" encoding="UTF-8"?>
<svg width="191px" height="52px" viewBox="0 0 191 52" version="1.1" xmlns="http://www.w3.org/2000/svg" xmlns:xlink="http://www.w3.org/1999/xlink">
    <title>Group 5 Copy 3</title>
    <defs>
        <path d="M12,0 L457,0 C463.627417,-1.21743675e-15 469,5.372583 469,12 L469,144 L469,144 L0,144 L0,12 C-8.11624501e-16,5.372583 5.372583,1.21743675e-15 12,0 Z" id="path-1"></path>
        <filter x="-6.4%" y="-20.8%" width="112.8%" height="141.7%" filterUnits="objectBoundingBox" id="filter-2">
            <feOffset dx="0" dy="0" in="SourceAlpha" result="shadowOffsetOuter1"></feOffset>
            <feGaussianBlur stdDeviation="10" in="shadowOffsetOuter1" result="shadowBlurOuter1"></feGaussianBlur>
            <feColorMatrix values="0 0 0 0 0   0 0 0 0 0   0 0 0 0 0  0 0 0 0.1 0" type="matrix" in="shadowBlurOuter1"></feColorMatrix>
        </filter>
        <path d="M16.9315134,0.178639765 L15.0212056,0.178639765 L13.9319521,3.48780981 C13.9806547,3.21296681 13.9892558,2.99327631 13.9892558,2.89778167 C13.9892558,1.51153443 13.2323375,0.178639765 11.4542488,0.178639765 L9.41220577,0.178639765 L9.41821912,3.47033866 C9.24163525,2.53515246 8.42759946,2.28445213 7.41519772,1.96159768 C7.03680373,1.83914307 6.82907334,1.64484738 6.90490108,1.46365994 C6.96968883,1.30569565 7.20162154,1.25606035 7.48316901,1.29681333 C7.91276023,1.36147422 8.25574436,1.51233658 8.5860502,1.7007629 L9.03734904,0.527045534 C8.9354945,0.474416855 8.20432374,0.0138083065 7.28796798,0.0138083065 C6.01008539,0.0138083065 5.19390862,0.668164739 5.19390862,1.63371514 C5.19390862,2.49428208 5.69882491,2.99456757 6.62733768,3.27498648 C7.62581378,3.57896112 7.87904453,3.70122008 7.84907089,4.00272959 C7.8230627,4.26246875 7.20419071,4.57892559 5.68990728,3.60110821 L5.24004197,4.57824083 L3.85114519,0.178639765 L1.94160061,0.178639765 L0.136889324,5.64781602 L1.6420131,5.64781602 L1.93362832,4.76470588 L3.69911504,4.76470588 L3.99907723,5.64781602 L5.57919097,5.64781602 L5.39998209,5.11280343 C5.93429488,5.4369687 6.59669382,5.73346968 7.38902198,5.73346968 C8.60325247,5.73346968 9.25939603,5.03777333 9.4159292,4.37079775 L9.4159292,5.64781602 L11.4522567,5.64781602 C12.6659101,5.64781602 13.3009045,5.04027759 13.6326439,4.39032318 L13.2160661,5.64781602 L14.7201473,5.64781602 L15.0212056,4.76470588 L16.8141593,4.76470588 L17.0784774,5.64781602 L18.6605459,5.64781602 L16.9315134,0.178639765 Z M2.2699115,3.52941176 L2.83109179,1.65042328 L3.36283186,3.52941176 L2.2699115,3.52941176 Z M10.9292035,4.23738698 L10.9292035,1.58823529 L11.288165,1.58823529 C11.7998765,1.58823529 12.3584071,1.80561329 12.3584071,2.91281114 C12.3584071,3.89354364 11.8650366,4.23738698 11.2925586,4.23738698 L10.9292035,4.23738698 Z M15.3849558,3.52941176 L15.9203032,1.67272688 L16.4778761,3.52941176 L15.3849558,3.52941176 Z" id="path-3"></path>
    </defs>
    <g id="Page-1" stroke="none" stroke-width="1" fill="none" fill-rule="evenodd">
        <g id="Group-5-Copy-3" transform="translate(-55.000000, -45.000000)">
            <g id="Rectangle-Copy-2">
                <use fill="black" fill-opacity="1" filter="url(#filter-2)" xlink:href="#path-1"></use>
                <use fill="#FFFFFF" fill-rule="evenodd" xlink:href="#path-1"></use>
            </g>
            <g id="Group-5" transform="translate(55.000000, 45.000000)">
                <g id="Group-17" fill="#FFD300">
                    <circle id="Oval-2" cx="58.5" cy="11.5" r="2.5"></circle>
                    <circle id="Oval-2-Copy-3" cx="13" cy="8" r="2"></circle>
                    <circle id="Oval-2-Copy-8" cx="2" cy="23" r="2"></circle>
                    <circle id="Oval-2-Copy" cx="67.5" cy="15.5" r="1.5"></circle>
                    <circle id="Oval-2-Copy-2" cx="66" cy="35" r="2"></circle>
                    <circle id="Oval-2-Copy-9" cx="5" cy="39" r="1"></circle>
                    <circle id="Oval-2-Copy-4" cx="16" cy="15" r="1"></circle>
                    <circle id="Oval-2-Copy-5" cx="32" cy="6" r="1"></circle>
                    <circle id="Oval-2-Copy-7" cx="49" cy="1" r="1"></circle>
                    <circle id="Oval-2-Copy-6" cx="21" cy="1" r="1"></circle>
                </g>
                <g id="Empty-Bag-Illustration-Copy" transform="translate(4.000000, 11.000000)">
                    <path d="M25,9 C25.8333333,3 29.1666667,0 35,0 C40.8333333,0 44.1666667,3 45,9" id="Path-3" stroke="#757574" stroke-width="4"></path>
                    <path d="M17,9 C17.8333333,3 21.1666667,0 27,0 C32.8333333,0 36.1666667,3 37,9" id="Path-3-Copy" stroke="#444652" stroke-width="4"></path>
                    <polygon id="Rectangle-10" fill="#68A51C" points="10 7 32 7 43 7 54 7 49.7692308 40 43 40 32 40 14.2307692 40"></polygon>
                    <rect id="Rectangle-9" fill="#FFD300" x="0" y="40" width="8" height="1" rx="0.5"></rect>
                    <rect id="Rectangle-9-Copy-3" fill="#FFD300" x="56" y="40" width="2" height="1" rx="0.5"></rect>
                    <rect id="Rectangle-9-Copy-4" fill="#FFD300" x="61" y="40" width="3" height="1" rx="0.5"></rect>
                    <rect id="Rectangle-9-Copy" fill="#FFD300" x="11" y="40" width="42" height="1" rx="0.5"></rect>
                    <g id="UI-/-ASDA-Logo" transform="translate(15.000000, 18.000000)">
                        <g id="Colors/Green" transform="translate(0.168142, 0.176471)">
                            <mask id="mask-4" fill="white">
                                <use xlink:href="#path-3"></use>
                            </mask>
                            <use id="Mask" fill="#FFFFFF" xlink:href="#path-3"></use>
                        </g>
                    </g>
                    <polygon id="Path-2" fill="#508016" points="39 40 39 7 54 7 49.8333333 40"></polygon>
                </g>
            </g>
            <text id="Chip-Text" font-family="SourceSansPro-SemiBold, Source Sans Pro" font-size="16" font-weight="500" line-spacing="20" letter-spacing="0.200000003" fill="#3D3D3D">
                <tspan x="132" y="87">Get started here</tspan>
            </text>
            <text id="Chip-Text-Copy" font-family="SourceSansPro-Regular, Source Sans Pro" font-size="12" font-weight="normal" letter-spacing="0.100000001" fill="#818181">
                <tspan x="132" y="68">Ouhh.. its empty!</tspan>
            </text>
        </g>
    </g>
</svg>