<svg xmlns="http://www.w3.org/2000/svg" xmlns:xlink="http://www.w3.org/1999/xlink" width="16" height="16" viewBox="0 0 16 16">
    <defs>
        <path id="ux9fs2qjfa" d="M7.167 0C7.903 0 8.5.597 8.5 1.333V7.5H3.975c-.116.571-.62 1-1.225 1-.604 0-1.109-.429-1.225-1h-.192C.597 7.5 0 6.903 0 6.167V1.333C0 .597.597 0 1.333 0h5.834zm0 1H1.333C1.15 1 1 1.15 1 1.333v4.834c0 .184.15.333.333.333h.417c.228-.304.591-.5 1-.5.409 0 .772.196 1 .5h3.417c.184 0 .333-.15.333-.333V1.333C7.5 1.15 7.35 1 7.167 1zm2.926.5c.346 0 .668.18.85.474l.907 1.466c.098.158.15.34.15.526V6.5c0 .552-.448 1-1 1h-.525c-.116.571-.62 1-1.225 1-.604 0-1.109-.429-1.225-1H7.5v-6h2.593zm-.075 1H8.5v3.75c.209-.157.468-.25.75-.25.409 0 .772.196 1 .5h.5c.138 0 .25-.112.25-.25V4.088c0-.042-.01-.083-.03-.12l-.732-1.338c-.044-.08-.128-.13-.22-.13zm-7.268 5c.138 0 .25-.112.25-.25S2.888 7 2.75 7s-.25.112-.25.25.112.25.25.25zm6.5 0c.138 0 .25-.112.25-.25S9.388 7 9.25 7 9 7.112 9 7.25s.112.25.25.25z"/>
    </defs>
    <g fill="none" fill-rule="evenodd" transform="translate(2 4)">
        <mask id="j3wqntcibb" fill="#fff">
            <use xlink:href="#ux9fs2qjfa"/>
        </mask>
        <use fill="#3D3D3D" fill-rule="nonzero" xlink:href="#ux9fs2qjfa"/>
        <g fill="#3D3D3D" mask="url(#j3wqntcibb)">
            <path d="M0 0H16V16H0z" transform="translate(-2 -4)"/>
        </g>
    </g>
</svg>
